<svg xmlns="http://www.w3.org/2000/svg" xmlns:xlink="http://www.w3.org/1999/xlink" viewBox="0,0,256,256" width="24px" height="24px"><g transform=""><g fill-opacity="0" fill="#dddddd" fill-rule="nonzero" stroke="none" stroke-width="1" stroke-linecap="butt" stroke-linejoin="miter" stroke-miterlimit="10" stroke-dasharray="" stroke-dashoffset="0" font-family="none" font-weight="none" font-size="none" text-anchor="none" style="mix-blend-mode: normal"><path d="M0,256v-256h256v256z" id="bgRectangle"></path></g><g fill="#8d8b8b" fill-rule="nonzero" stroke="none" stroke-width="1" stroke-linecap="butt" stroke-linejoin="miter" stroke-miterlimit="10" stroke-dasharray="" stroke-dashoffset="0" font-family="none" font-weight="none" font-size="none" text-anchor="none" style="mix-blend-mode: normal"><g transform="scale(10.66667,10.66667)"><path d="M12,2c-5.523,0 -10,4.477 -10,10c0,5.523 4.477,10 10,10c5.523,0 10,-4.477 10,-10c0,-5.523 -4.477,-10 -10,-10zM11.39258,5.12695h1.29883v1.91406c0.369,0.019 0.71644,0.06148 1.02344,0.14648c0.394,0.109 0.727,0.27695 1,0.50195c0.273,0.227 0.48195,0.50956 0.62695,0.85156c0.143,0.342 0.21484,0.74594 0.21484,1.21094c0,0.228 -0.02327,0.4443 -0.07227,0.6543c-0.047,0.21 -0.12261,0.40489 -0.22461,0.58789c-0.104,0.183 -0.23358,0.34909 -0.39258,0.49609c-0.156,0.148 -0.3445,0.27024 -0.5625,0.36524c0.255,0.073 0.47144,0.18503 0.64844,0.33203c0.178,0.148 0.32164,0.31863 0.43164,0.51563c0.11,0.197 0.18828,0.40963 0.23828,0.64063c0.05,0.229 0.07617,0.46603 0.07617,0.70703c0,0.966 -0.26587,1.6955 -0.79687,2.1875c-0.513,0.476 -1.25294,0.71642 -2.21094,0.73242v1.85156h-1.29883v-1.8457h-2.0918v-9.95312h2.0918zM11.31055,8.69727v2.48828h1.04688c0.401,0.001 0.69663,-0.10255 0.89063,-0.31055c0.193,-0.207 0.29101,-0.51111 0.29101,-0.91211c0,-0.451 -0.09144,-0.7737 -0.27344,-0.9707c-0.182,-0.197 -0.47867,-0.29492 -0.88867,-0.29492zM11.31055,12.64844v2.66016h1.28516c0.196,0 0.36195,-0.0317 0.50195,-0.0957c0.139,-0.063 0.2518,-0.15549 0.3418,-0.27149c0.088,-0.117 0.15431,-0.25125 0.19531,-0.40625c0.041,-0.155 0.06055,-0.32667 0.06055,-0.51367c0,-0.424 -0.07637,-0.75791 -0.23437,-1.00391c-0.156,-0.245 -0.42288,-0.36914 -0.79688,-0.36914z"></path></g></g></g></svg>